<svg width="20" height="20" viewBox="0 0 20 20" fill="none" xmlns="http://www.w3.org/2000/svg">
<path d="M13.3333 6.66667C14.6594 6.66667 15.9311 7.19345 16.8688 8.13113C17.8065 9.06881 18.3333 10.3406 18.3333 11.6667V17.5H15V11.6667C15 11.2246 14.8244 10.8007 14.5118 10.4882C14.1992 10.1756 13.7753 10 13.3333 10C12.8913 10 12.4673 10.1756 12.1548 10.4882C11.8422 10.8007 11.6666 11.2246 11.6666 11.6667V17.5H8.33329V11.6667C8.33329 10.3406 8.86008 9.06881 9.79776 8.13113C10.7354 7.19345 12.0072 6.66667 13.3333 6.66667Z" stroke="currentColor" stroke-opacity="0.7" stroke-width="1.5" stroke-linecap="round" stroke-linejoin="round"/>
<path d="M4.99996 7.5H1.66663V17.5H4.99996V7.5Z" stroke="currentColor" stroke-opacity="0.7" stroke-width="1.5" stroke-linecap="round" stroke-linejoin="round"/>
<path d="M3.33329 5C4.25377 5 4.99996 4.25381 4.99996 3.33333C4.99996 2.41286 4.25377 1.66667 3.33329 1.66667C2.41282 1.66667 1.66663 2.41286 1.66663 3.33333C1.66663 4.25381 2.41282 5 3.33329 5Z" stroke="currentColor" stroke-opacity="0.7" stroke-width="1.5" stroke-linecap="round" stroke-linejoin="round"/>
</svg>
