<svg width="38" height="38" viewBox="0 0 38 38" fill="none" xmlns="http://www.w3.org/2000/svg">
<g filter="url(#filter0_dd_1083_50505)">
<g clip-path="url(#clip0_1083_50505)">
<path fill-rule="evenodd" clip-rule="evenodd" d="M19.1742 33.1742C27.1093 33.1742 33.5226 26.832 33.5226 19.0323C33.5226 11.2325 27.1093 4.89032 19.1742 4.89032C11.2391 4.89032 4.82581 11.2325 4.82581 19.0323C4.82581 26.832 11.2391 33.1742 19.1742 33.1742ZM19.1742 34C19.1822 34 19.1903 34 19.1983 34C19.9404 33.9988 20.6701 33.9452 21.3836 33.8425C25.1031 33.3073 28.3848 31.4411 30.716 28.7498C30.8968 28.5409 31.072 28.3271 31.2412 28.1085C32.2139 26.8522 32.9896 25.4394 33.5226 23.9152C34.0076 22.5283 34.2918 21.049 34.3408 19.5112C34.3458 19.3522 34.3484 19.1925 34.3484 19.0323C34.3484 10.7658 27.5547 4.06451 19.1742 4.06451C10.7937 4.06451 4 10.7658 4 19.0323C4 21.8278 4.77697 24.4444 6.12953 26.6833C6.29788 26.9619 6.47514 27.2348 6.66094 27.5013C7.13929 28.1877 7.67417 28.8327 8.25897 29.4299C8.46484 29.6402 8.67691 29.8445 8.89487 30.0426C9.81041 30.8746 10.83 31.597 11.9322 32.1886C12.1839 32.3237 12.44 32.452 12.7001 32.5732C13.2851 32.8458 13.8906 33.0826 14.5137 33.2808C14.8889 33.4001 15.2705 33.5054 15.6578 33.596C16.7863 33.8602 17.9637 34 19.1742 34Z" fill="black"/>
<path fill-rule="evenodd" clip-rule="evenodd" d="M20.5567 11.9318L19.3071 10.8976L17.9319 12.8006C17.3586 13.594 16.9359 14.4859 16.6849 15.432L16.5852 15.808C16.2653 17.0138 15.5749 18.0887 14.6115 18.8813C13.9604 19.4169 13.4149 20.0692 13.0029 20.8048L12.5093 21.6858C12.0188 22.5614 11.6387 23.4944 11.3776 24.4635L11.0501 25.6786L9.12996 25.3186C8.0218 25.1108 6.89471 25.5717 6.24952 26.4963C6.20705 26.5571 6.16703 26.6195 6.12953 26.6833C6.29788 26.9619 6.47514 27.2348 6.66094 27.5013C6.72289 27.3123 6.8123 27.1329 6.92675 26.9688C7.38616 26.3105 8.18871 25.9823 8.97778 26.1303L10.533 26.4219L9.62145 27.3939C9.05825 27.9946 8.59833 28.6826 8.25897 29.4299C8.46484 29.6402 8.67691 29.8445 8.89487 30.0426C9.20455 29.2721 9.65502 28.5654 10.2238 27.9588L11.7213 26.362L12.1749 24.6783C12.4183 23.7751 12.7726 22.9055 13.2298 22.0894L13.7233 21.2084C14.0852 20.5623 14.5643 19.9894 15.1362 19.519C16.2331 18.6166 17.0191 17.3926 17.3834 16.0197L17.4831 15.6438C17.7082 14.7955 18.0872 13.9957 18.6012 13.2843L19.1453 12.5313L19.2265 12.9954C19.7299 15.8728 19.6043 18.825 18.8583 21.6493L18.5878 22.6731L17.38 24.364C16.8218 25.1455 16.3536 25.9875 15.9842 26.8739C15.3403 28.4195 14.3784 29.8123 13.1612 30.9619L12.7776 31.3242C12.4842 31.6013 12.2022 31.8897 11.9322 32.1886C12.1839 32.3237 12.44 32.452 12.7001 32.5732C12.9079 32.3504 13.1228 32.1341 13.3446 31.9245L13.7282 31.5623C15.0296 30.3331 16.058 28.844 16.7465 27.1916C17.092 26.3624 17.5299 25.5749 18.052 24.844L18.4345 24.3085L18.1419 27.8929V30.6316C17.0801 31.7039 15.8549 32.5978 14.5137 33.2808C14.8889 33.4001 15.2705 33.5054 15.6578 33.596C16.8288 32.9104 17.9038 32.067 18.8516 31.0871L18.8595 31.079L18.9414 30.9844C19.7241 30.0813 20.7311 29.4007 21.8608 29.0111C22.6754 28.7302 23.4365 28.3132 24.1117 27.7777L24.8464 27.195C25.4078 26.7498 26.0675 26.4535 26.7647 26.3273L26.2205 27.2343C25.6663 28.1579 24.8934 28.9309 23.9698 29.485C22.8584 30.1518 21.9421 31.0992 21.3127 32.2322L20.7368 33.2687L19.6853 33.754C19.5198 33.8304 19.3574 33.9124 19.1983 34C19.9404 33.9988 20.6701 33.9452 21.3836 33.8425L21.4127 33.7525L22.0345 32.6332C22.5936 31.6269 23.4075 30.7854 24.3946 30.1931C25.4345 29.5692 26.3047 28.699 26.9286 27.6592L27.7615 26.2711C28.3163 26.3352 28.8219 26.6334 29.1463 27.0967L29.5068 27.6118C29.7828 28.006 30.1277 28.3473 30.5249 28.619L30.716 28.7498C30.8968 28.5409 31.072 28.3271 31.2412 28.1085L30.9912 27.9375C30.676 27.7218 30.4023 27.4511 30.1833 27.1382L29.8228 26.6232C29.3003 25.8768 28.4466 25.4323 27.5355 25.4323C26.3728 25.4323 25.2442 25.8255 24.3333 26.548L23.5986 27.1307C22.9966 27.6081 22.3179 27.98 21.5916 28.2304C20.6186 28.566 19.7268 29.094 18.9677 29.7797V27.9265L19.3763 22.9217L19.6567 21.8602C20.4332 18.9207 20.5639 15.8479 20.04 12.8531L19.9833 12.5291L20.0302 12.568C20.2816 12.776 20.5589 12.9507 20.8551 13.0876L21.0395 13.1728C21.5797 13.4224 22.0092 13.8621 22.2462 14.408C22.5879 15.195 23.2269 15.815 24.0238 16.1327L24.3999 16.2826C24.9005 16.4822 25.3391 16.8111 25.671 17.2358C26.4043 18.1742 27.5289 18.7226 28.7198 18.7226H29.2335C29.478 18.7226 29.7221 18.7044 29.9638 18.6681L30.3485 18.6104C31.5052 18.4369 32.677 18.8096 33.5208 19.6195L33.5226 19.6236V23.9152C34.0076 22.5283 34.2918 21.049 34.3408 19.5112C34.3156 19.3265 34.2288 19.1543 34.0927 19.0237C33.0641 18.0365 31.6359 17.5822 30.226 17.7937L29.8413 17.8514C29.6401 17.8816 29.4369 17.8968 29.2335 17.8968H28.7198C27.783 17.8968 26.8985 17.4654 26.3217 16.7273C25.8998 16.1874 25.3422 15.7693 24.7057 15.5155L24.3297 15.3656C23.7352 15.1286 23.2586 14.6662 23.0037 14.0791C22.686 13.3473 22.1102 12.7579 21.3859 12.4231L21.2015 12.3379C20.97 12.2309 20.7533 12.0944 20.5567 11.9318Z" fill="black"/>
<path d="M9.9871 13.9742C13.2937 13.9742 15.9742 11.2937 15.9742 7.9871C15.9742 4.68052 13.2937 2 9.9871 2C6.68052 2 4 4.68052 4 7.9871C4 11.2937 6.68052 13.9742 9.9871 13.9742Z" fill="#EF566B"/>
</g>
</g>
<defs>
<filter id="filter0_dd_1083_50505" x="0" y="0" width="38" height="38" filterUnits="userSpaceOnUse" color-interpolation-filters="sRGB">
<feFlood flood-opacity="0" result="BackgroundImageFix"/>
<feColorMatrix in="SourceAlpha" type="matrix" values="0 0 0 0 0 0 0 0 0 0 0 0 0 0 0 0 0 0 127 0" result="hardAlpha"/>
<feOffset dy="1"/>
<feGaussianBlur stdDeviation="1"/>
<feColorMatrix type="matrix" values="0 0 0 0 0.0627451 0 0 0 0 0.0941176 0 0 0 0 0.156863 0 0 0 0.06 0"/>
<feBlend mode="normal" in2="BackgroundImageFix" result="effect1_dropShadow_1083_50505"/>
<feColorMatrix in="SourceAlpha" type="matrix" values="0 0 0 0 0 0 0 0 0 0 0 0 0 0 0 0 0 0 127 0" result="hardAlpha"/>
<feOffset dy="1"/>
<feGaussianBlur stdDeviation="1.5"/>
<feColorMatrix type="matrix" values="0 0 0 0 0.0627451 0 0 0 0 0.0941176 0 0 0 0 0.156863 0 0 0 0.1 0"/>
<feBlend mode="normal" in2="effect1_dropShadow_1083_50505" result="effect2_dropShadow_1083_50505"/>
<feBlend mode="normal" in="SourceGraphic" in2="effect2_dropShadow_1083_50505" result="shape"/>
</filter>
<clipPath id="clip0_1083_50505">
<rect width="32" height="32" fill="white" transform="translate(3 2)"/>
</clipPath>
</defs>
</svg>
